<mxfile host="app.diagrams.net" agent="Mozilla/5.0 (Windows NT 10.0; Win64; x64) AppleWebKit/537.36 (KHTML, like Gecko) Chrome/137.0.0.0 Safari/537.36 OPR/121.0.0.0" version="28.2.1">
  <diagram name="Page-1" id="xHjy6TO8ClJOhyJSbHw7">
    <mxGraphModel dx="1766" dy="774" grid="1" gridSize="10" guides="1" tooltips="1" connect="1" arrows="1" fold="1" page="1" pageScale="1" pageWidth="827" pageHeight="1169" math="0" shadow="0">
      <root>
        <mxCell id="0" />
        <mxCell id="1" parent="0" />
        <mxCell id="B5zrIFDvUsuqgYrMpMKj-9" style="edgeStyle=orthogonalEdgeStyle;rounded=0;orthogonalLoop=1;jettySize=auto;html=1;exitX=0.5;exitY=1;exitDx=0;exitDy=0;" edge="1" parent="1" source="B5zrIFDvUsuqgYrMpMKj-1" target="B5zrIFDvUsuqgYrMpMKj-7">
          <mxGeometry relative="1" as="geometry" />
        </mxCell>
        <mxCell id="B5zrIFDvUsuqgYrMpMKj-1" value="make Appointment" style="ellipse;whiteSpace=wrap;html=1;" vertex="1" parent="1">
          <mxGeometry x="360" y="360" width="120" height="80" as="geometry" />
        </mxCell>
        <mxCell id="B5zrIFDvUsuqgYrMpMKj-5" value="Login" style="ellipse;whiteSpace=wrap;html=1;" vertex="1" parent="1">
          <mxGeometry x="360" y="200" width="120" height="80" as="geometry" />
        </mxCell>
        <mxCell id="B5zrIFDvUsuqgYrMpMKj-6" value="Call assistant" style="ellipse;whiteSpace=wrap;html=1;" vertex="1" parent="1">
          <mxGeometry x="490" y="690" width="120" height="80" as="geometry" />
        </mxCell>
        <mxCell id="B5zrIFDvUsuqgYrMpMKj-10" style="edgeStyle=orthogonalEdgeStyle;rounded=0;orthogonalLoop=1;jettySize=auto;html=1;exitX=0.5;exitY=1;exitDx=0;exitDy=0;entryX=0.5;entryY=0;entryDx=0;entryDy=0;" edge="1" parent="1" source="B5zrIFDvUsuqgYrMpMKj-7" target="B5zrIFDvUsuqgYrMpMKj-6">
          <mxGeometry relative="1" as="geometry" />
        </mxCell>
        <mxCell id="B5zrIFDvUsuqgYrMpMKj-15" value="" style="edgeStyle=orthogonalEdgeStyle;rounded=0;orthogonalLoop=1;jettySize=auto;html=1;" edge="1" parent="1" source="B5zrIFDvUsuqgYrMpMKj-7" target="B5zrIFDvUsuqgYrMpMKj-13">
          <mxGeometry relative="1" as="geometry" />
        </mxCell>
        <mxCell id="B5zrIFDvUsuqgYrMpMKj-7" value="scedule visit" style="ellipse;whiteSpace=wrap;html=1;" vertex="1" parent="1">
          <mxGeometry x="360" y="520" width="120" height="80" as="geometry" />
        </mxCell>
        <mxCell id="B5zrIFDvUsuqgYrMpMKj-8" value="" style="endArrow=classic;html=1;rounded=0;exitX=0.5;exitY=1;exitDx=0;exitDy=0;entryX=0.5;entryY=0;entryDx=0;entryDy=0;" edge="1" parent="1" source="B5zrIFDvUsuqgYrMpMKj-5" target="B5zrIFDvUsuqgYrMpMKj-1">
          <mxGeometry width="50" height="50" relative="1" as="geometry">
            <mxPoint x="390" y="550" as="sourcePoint" />
            <mxPoint x="440" y="500" as="targetPoint" />
          </mxGeometry>
        </mxCell>
        <mxCell id="B5zrIFDvUsuqgYrMpMKj-20" style="edgeStyle=orthogonalEdgeStyle;rounded=0;orthogonalLoop=1;jettySize=auto;html=1;exitX=1;exitY=0.25;exitDx=0;exitDy=0;entryX=0;entryY=0.5;entryDx=0;entryDy=0;" edge="1" parent="1" source="B5zrIFDvUsuqgYrMpMKj-11" target="B5zrIFDvUsuqgYrMpMKj-5">
          <mxGeometry relative="1" as="geometry" />
        </mxCell>
        <mxCell id="B5zrIFDvUsuqgYrMpMKj-21" style="edgeStyle=orthogonalEdgeStyle;rounded=0;orthogonalLoop=1;jettySize=auto;html=1;exitX=1;exitY=0.5;exitDx=0;exitDy=0;entryX=0;entryY=0.5;entryDx=0;entryDy=0;" edge="1" parent="1" source="B5zrIFDvUsuqgYrMpMKj-11" target="B5zrIFDvUsuqgYrMpMKj-1">
          <mxGeometry relative="1" as="geometry" />
        </mxCell>
        <mxCell id="B5zrIFDvUsuqgYrMpMKj-22" style="edgeStyle=orthogonalEdgeStyle;rounded=0;orthogonalLoop=1;jettySize=auto;html=1;exitX=1;exitY=0.75;exitDx=0;exitDy=0;entryX=0;entryY=0.5;entryDx=0;entryDy=0;" edge="1" parent="1" source="B5zrIFDvUsuqgYrMpMKj-11" target="B5zrIFDvUsuqgYrMpMKj-7">
          <mxGeometry relative="1" as="geometry" />
        </mxCell>
        <mxCell id="B5zrIFDvUsuqgYrMpMKj-23" style="edgeStyle=orthogonalEdgeStyle;rounded=0;orthogonalLoop=1;jettySize=auto;html=1;exitX=0.75;exitY=1;exitDx=0;exitDy=0;entryX=0;entryY=0.5;entryDx=0;entryDy=0;" edge="1" parent="1" source="B5zrIFDvUsuqgYrMpMKj-11" target="B5zrIFDvUsuqgYrMpMKj-13">
          <mxGeometry relative="1" as="geometry" />
        </mxCell>
        <mxCell id="B5zrIFDvUsuqgYrMpMKj-11" value="Vet" style="rounded=1;whiteSpace=wrap;html=1;" vertex="1" parent="1">
          <mxGeometry x="30" y="360" width="120" height="60" as="geometry" />
        </mxCell>
        <mxCell id="B5zrIFDvUsuqgYrMpMKj-16" style="edgeStyle=orthogonalEdgeStyle;rounded=0;orthogonalLoop=1;jettySize=auto;html=1;exitX=0;exitY=1;exitDx=0;exitDy=0;entryX=1;entryY=0.5;entryDx=0;entryDy=0;" edge="1" parent="1" source="B5zrIFDvUsuqgYrMpMKj-12" target="B5zrIFDvUsuqgYrMpMKj-7">
          <mxGeometry relative="1" as="geometry" />
        </mxCell>
        <mxCell id="B5zrIFDvUsuqgYrMpMKj-17" style="edgeStyle=orthogonalEdgeStyle;rounded=0;orthogonalLoop=1;jettySize=auto;html=1;exitX=0;exitY=0.5;exitDx=0;exitDy=0;entryX=1;entryY=0.5;entryDx=0;entryDy=0;" edge="1" parent="1" source="B5zrIFDvUsuqgYrMpMKj-12" target="B5zrIFDvUsuqgYrMpMKj-1">
          <mxGeometry relative="1" as="geometry" />
        </mxCell>
        <mxCell id="B5zrIFDvUsuqgYrMpMKj-18" style="edgeStyle=orthogonalEdgeStyle;rounded=0;orthogonalLoop=1;jettySize=auto;html=1;exitX=0;exitY=0;exitDx=0;exitDy=0;entryX=1;entryY=0.5;entryDx=0;entryDy=0;" edge="1" parent="1" source="B5zrIFDvUsuqgYrMpMKj-12" target="B5zrIFDvUsuqgYrMpMKj-5">
          <mxGeometry relative="1" as="geometry" />
        </mxCell>
        <mxCell id="B5zrIFDvUsuqgYrMpMKj-19" style="edgeStyle=orthogonalEdgeStyle;rounded=0;orthogonalLoop=1;jettySize=auto;html=1;exitX=0.25;exitY=1;exitDx=0;exitDy=0;entryX=0.5;entryY=1;entryDx=0;entryDy=0;" edge="1" parent="1" source="B5zrIFDvUsuqgYrMpMKj-12" target="B5zrIFDvUsuqgYrMpMKj-6">
          <mxGeometry relative="1" as="geometry">
            <Array as="points">
              <mxPoint x="730" y="870" />
              <mxPoint x="550" y="870" />
            </Array>
          </mxGeometry>
        </mxCell>
        <mxCell id="B5zrIFDvUsuqgYrMpMKj-12" value="User" style="rounded=1;whiteSpace=wrap;html=1;" vertex="1" parent="1">
          <mxGeometry x="700" y="360" width="120" height="60" as="geometry" />
        </mxCell>
        <mxCell id="B5zrIFDvUsuqgYrMpMKj-13" value="export users" style="ellipse;whiteSpace=wrap;html=1;" vertex="1" parent="1">
          <mxGeometry x="250" y="690" width="120" height="80" as="geometry" />
        </mxCell>
      </root>
    </mxGraphModel>
  </diagram>
</mxfile>
